<?xml version="1.0" encoding="UTF-8" standalone="no"?>
<svg
   version="1.1"
   id="Layer_1"
   x="0px"
   y="0px"
   viewBox="0 0 122.88 121.96"
   style="enable-background:new 0 0 122.88 121.96"
   xml:space="preserve"
   sodipodi:docname="body-weight-scales-icon.svg"
   inkscape:version="1.3.2 (091e20e, 2023-11-25, custom)"
   xmlns:inkscape="http://www.inkscape.org/namespaces/inkscape"
   xmlns:sodipodi="http://sodipodi.sourceforge.net/DTD/sodipodi-0.dtd"
   xmlns="http://www.w3.org/2000/svg"
   xmlns:svg="http://www.w3.org/2000/svg"><defs
     id="defs1" /><sodipodi:namedview
     id="namedview1"
     pagecolor="#ffffff"
     bordercolor="#000000"
     borderopacity="0.25"
     inkscape:showpageshadow="2"
     inkscape:pageopacity="0.0"
     inkscape:pagecheckerboard="0"
     inkscape:deskcolor="#d1d1d1"
     inkscape:zoom="6.3709413"
     inkscape:cx="61.372406"
     inkscape:cy="60.98"
     inkscape:window-width="1920"
     inkscape:window-height="991"
     inkscape:window-x="-9"
     inkscape:window-y="-9"
     inkscape:window-maximized="1"
     inkscape:current-layer="Layer_1" /><g
     id="g1"
     transform="matrix(0.14288774,0,0,0.1545788,77.853488,43.94955)"><path
       d="m 42.77,103.11 h 37.34 c 0.14,0 0.27,0.06 0.37,0.15 0.09,0.09 0.15,0.22 0.15,0.37 v 5.21 c 0,0.14 -0.06,0.27 -0.15,0.37 -0.09,0.09 -0.23,0.15 -0.37,0.15 H 42.77 c -0.14,0 -0.27,-0.06 -0.37,-0.15 -0.09,-0.09 -0.15,-0.23 -0.15,-0.37 v -5.21 c 0,-0.14 0.06,-0.27 0.15,-0.37 0.09,-0.09 0.22,-0.15 0.37,-0.15 z M 61.79,12.93 c 3.38,0 6.61,0.67 9.56,1.89 3.06,1.27 5.82,3.13 8.12,5.43 2.3,2.3 4.16,5.06 5.43,8.12 1.22,2.95 1.89,6.18 1.89,9.56 0,3.39 -0.67,6.61 -1.89,9.56 -1.27,3.06 -3.13,5.82 -5.43,8.12 -2.3,2.3 -5.06,4.16 -8.12,5.43 -2.95,1.22 -6.18,1.89 -9.56,1.89 -3.38,0 -6.61,-0.67 -9.56,-1.89 -3.06,-1.27 -5.82,-3.13 -8.12,-5.43 -2.3,-2.3 -4.16,-5.06 -5.43,-8.12 -1.22,-2.95 -1.89,-6.18 -1.89,-9.56 0,-3.38 0.67,-6.61 1.89,-9.56 1.27,-3.06 3.13,-5.82 5.43,-8.12 2.3,-2.3 5.06,-4.16 8.12,-5.43 2.95,-1.22 6.18,-1.89 9.56,-1.89 z M 14.64,7.59 H 38.15 C 39.62,6.45 41.22,5.41 42.93,4.49 44.67,3.56 46.52,2.76 48.46,2.11 50.49,1.42 52.63,0.89 54.84,0.53 57,0.18 59.23,0 61.5,0 c 2.27,0 4.5,0.18 6.66,0.53 2.21,0.36 4.35,0.89 6.38,1.58 1.94,0.66 3.79,1.46 5.53,2.38 1.72,0.92 3.32,1.95 4.78,3.1 h 23.38 c 1.97,0 3.86,0.4 5.59,1.11 1.79,0.74 3.41,1.84 4.76,3.19 1.35,1.35 2.44,2.96 3.19,4.76 0.72,1.72 1.11,3.61 1.11,5.59 v 85.09 c 0,1.97 -0.4,3.86 -1.11,5.59 -0.74,1.79 -1.84,3.41 -3.19,4.76 -1.35,1.35 -2.96,2.44 -4.76,3.19 -1.72,0.72 -3.61,1.11 -5.59,1.11 H 14.64 c -1.97,0 -3.86,-0.4 -5.59,-1.11 C 7.26,120.13 5.64,119.03 4.29,117.68 2.94,116.33 1.85,114.72 1.1,112.92 0.4,111.18 0,109.29 0,107.32 V 22.23 C 0,20.26 0.4,18.37 1.11,16.64 1.85,14.85 2.95,13.23 4.3,11.88 5.65,10.53 7.26,9.44 9.06,8.69 c 1.72,-0.71 3.61,-1.1 5.58,-1.1 z m 1.97,94.55 c 1.13,0 2.16,0.46 2.9,1.2 0.74,0.74 1.2,1.77 1.2,2.9 0,1.13 -0.46,2.16 -1.2,2.9 -0.74,0.74 -1.77,1.2 -2.9,1.2 -1.13,0 -2.15,-0.46 -2.9,-1.2 -0.74,-0.74 -1.2,-1.77 -1.2,-2.9 0,-1.13 0.46,-2.16 1.2,-2.9 l 0.02,-0.02 c 0.75,-0.73 1.76,-1.18 2.88,-1.18 z m 0,-81.14 c 1.13,0 2.16,0.46 2.9,1.2 0.74,0.74 1.2,1.77 1.2,2.9 0,1.13 -0.46,2.15 -1.2,2.9 -0.74,0.74 -1.77,1.2 -2.9,1.2 -1.13,0 -2.15,-0.46 -2.9,-1.2 v 0 c -0.74,-0.74 -1.2,-1.77 -1.2,-2.9 0,-1.13 0.46,-2.16 1.2,-2.9 l 0.02,-0.02 C 14.48,21.45 15.49,21 16.61,21 Z m 89.66,0 c 1.13,0 2.15,0.46 2.9,1.2 0.74,0.74 1.2,1.77 1.2,2.9 0,1.13 -0.46,2.15 -1.2,2.9 v 0 c -0.74,0.74 -1.77,1.2 -2.9,1.2 -1.13,0 -2.16,-0.46 -2.9,-1.2 l -0.02,-0.02 c -0.73,-0.74 -1.18,-1.76 -1.18,-2.87 0,-1.13 0.46,-2.16 1.2,-2.9 0.74,-0.75 1.77,-1.21 2.9,-1.21 z m 0,81.14 c 1.13,0 2.15,0.46 2.9,1.2 0.74,0.74 1.2,1.77 1.2,2.9 0,1.13 -0.46,2.16 -1.2,2.9 l -0.02,0.02 c -0.74,0.73 -1.76,1.18 -2.87,1.18 -1.13,0 -2.16,-0.46 -2.9,-1.2 -0.74,-0.74 -1.2,-1.77 -1.2,-2.9 0,-1.13 0.46,-2.16 1.2,-2.9 0.73,-0.74 1.76,-1.2 2.89,-1.2 z M 37.73,12.77 H 14.64 c -1.28,0 -2.49,0.26 -3.61,0.72 -1.16,0.48 -2.2,1.19 -3.08,2.06 -0.88,0.88 -1.58,1.92 -2.06,3.08 -0.46,1.11 -0.72,2.33 -0.72,3.61 v 85.09 c 0,1.28 0.26,2.5 0.72,3.61 0.48,1.16 1.19,2.2 2.06,3.08 0.88,0.88 1.92,1.58 3.08,2.06 1.11,0.46 2.33,0.72 3.61,0.72 h 93.59 c 1.28,0 2.49,-0.26 3.61,-0.72 1.16,-0.48 2.2,-1.19 3.08,-2.06 0.88,-0.88 1.58,-1.92 2.06,-3.08 0.46,-1.11 0.72,-2.33 0.72,-3.61 v -85.1 c 0,-1.28 -0.26,-2.5 -0.72,-3.61 -0.48,-1.16 -1.19,-2.2 -2.06,-3.08 -0.88,-0.88 -1.92,-1.58 -3.08,-2.06 -1.11,-0.46 -2.33,-0.72 -3.61,-0.72 H 83.96 c -0.03,0 -0.07,0 -0.1,-0.01 C 83.6,12.74 83.33,12.69 83.08,12.6 L 83.06,12.59 C 82.79,12.49 82.54,12.35 82.31,12.15 81,11.06 79.54,10.07 77.95,9.2 76.38,8.34 74.69,7.6 72.9,6.99 71.14,6.39 69.28,5.93 67.34,5.62 65.46,5.32 63.51,5.16 61.49,5.16 59.48,5.16 57.52,5.32 55.64,5.62 53.72,5.95 51.86,6.41 50.1,7 c -1.76,0.59 -3.42,1.32 -4.96,2.16 -1.55,0.84 -2.99,1.81 -4.3,2.87 -0.23,0.23 -0.51,0.41 -0.82,0.53 -0.31,0.13 -0.64,0.19 -0.98,0.19 H 37.73 Z M 80,39.17 c -0.41,0 -0.79,-0.17 -1.06,-0.44 v 0 c -0.27,-0.27 -0.44,-0.65 -0.44,-1.06 0,-0.42 0.17,-0.79 0.44,-1.06 0.27,-0.27 0.65,-0.44 1.06,-0.44 h 3.02 c -0.19,-2.33 -0.76,-4.56 -1.65,-6.62 -0.91,-2.13 -2.16,-4.08 -3.68,-5.78 l -1.84,1.84 -0.02,0.02 c -0.29,0.28 -0.67,0.42 -1.04,0.42 -0.38,0 -0.77,-0.15 -1.06,-0.44 v 0 c -0.29,-0.29 -0.44,-0.68 -0.44,-1.06 0,-0.39 0.15,-0.77 0.44,-1.06 l 1.81,-1.81 c -1.72,-1.46 -3.68,-2.64 -5.81,-3.5 -2.06,-0.83 -4.29,-1.34 -6.61,-1.49 v 3.23 c 0,0.42 -0.17,0.79 -0.44,1.06 -0.27,0.27 -0.65,0.44 -1.06,0.44 -0.42,0 -0.79,-0.17 -1.06,-0.44 -0.27,-0.27 -0.44,-0.65 -0.44,-1.06 V 16.7 c -2.31,0.18 -4.51,0.73 -6.55,1.59 -2.11,0.89 -4.04,2.1 -5.74,3.58 l 2.1,2.1 c 0.29,0.29 0.44,0.68 0.44,1.06 0,0.39 -0.15,0.77 -0.44,1.06 -0.29,0.29 -0.68,0.44 -1.06,0.44 -0.38,0 -0.77,-0.15 -1.06,-0.44 l -2.1,-2.1 c -1.48,1.71 -2.69,3.65 -3.57,5.77 -0.85,2.05 -1.4,4.26 -1.57,6.58 h 3.34 c 0.42,0 0.79,0.17 1.06,0.44 0.27,0.27 0.44,0.65 0.44,1.06 0,0.41 -0.17,0.79 -0.44,1.06 -0.27,0.27 -0.65,0.44 -1.06,0.44 h -3.35 c 0.15,2.34 0.68,4.58 1.53,6.65 0.87,2.14 2.09,4.1 3.57,5.82 l 2.07,-2.07 c 0.29,-0.29 0.68,-0.44 1.06,-0.44 0.39,0 0.77,0.15 1.06,0.44 0.29,0.29 0.44,0.68 0.44,1.06 0,0.39 -0.15,0.77 -0.44,1.06 l -2.08,2.08 c 1.72,1.51 3.7,2.75 5.84,3.65 2.08,0.87 4.33,1.42 6.69,1.58 V 56.6 c 0,-0.41 0.17,-0.79 0.44,-1.06 v 0 c 0.27,-0.27 0.65,-0.44 1.06,-0.44 0.41,0 0.79,0.17 1.06,0.44 0.27,0.27 0.44,0.65 0.44,1.06 v 2.59 c 2.36,-0.17 4.62,-0.72 6.71,-1.59 2.16,-0.9 4.13,-2.15 5.86,-3.67 L 73.9,51.96 c -0.29,-0.29 -0.44,-0.68 -0.44,-1.06 0,-0.39 0.15,-0.77 0.44,-1.06 0.29,-0.29 0.68,-0.44 1.06,-0.44 0.39,0 0.77,0.15 1.06,0.44 l 1.95,1.95 c 1.49,-1.74 2.71,-3.73 3.58,-5.89 0.84,-2.1 1.36,-4.36 1.5,-6.72 H 80 Z m -16.45,1.34 v 0 c -0.42,0.46 -0.97,0.71 -1.54,0.75 -0.58,0.04 -1.17,-0.14 -1.65,-0.56 l -0.03,-0.02 c -0.46,-0.41 -0.71,-0.97 -0.74,-1.53 -0.04,-0.58 0.14,-1.17 0.56,-1.65 l 7.86,-8.99 c 0.41,-0.47 0.98,-0.73 1.56,-0.77 0.58,-0.04 1.17,0.14 1.65,0.56 0.47,0.41 0.73,0.98 0.77,1.56 0.04,0.58 -0.14,1.17 -0.56,1.65 -2.63,2.99 -5.28,5.98 -7.88,9 z"
       id="path1" /></g><text
     xml:space="preserve"
     style="font-style:normal;font-variant:normal;font-weight:normal;font-stretch:normal;font-size:28.1553px;font-family:Impact;-inkscape-font-specification:Impact;fill:#000000;stroke-width:2.34628"
     x="15.578595"
     y="80.742996"
     id="text1"
     transform="scale(1.2957404,0.77175952)"><tspan
       sodipodi:role="line"
       id="tspan1"
       x="15.578595"
       y="80.742996"
       style="fill:#0000ff;stroke-width:2.34628">BMI</tspan></text><text
     xml:space="preserve"
     style="font-style:normal;font-variant:normal;font-weight:normal;font-stretch:normal;font-size:12.622px;font-family:Impact;-inkscape-font-specification:Impact;fill:#ff0000;stroke-width:1.05183"
     x="16.782995"
     y="89.028748"
     id="text2"
     transform="scale(1.2272172,0.81485167)"><tspan
       sodipodi:role="line"
       id="tspan2"
       x="16.782995"
       y="89.028748"
       style="stroke-width:1.05183">CALCULATOR</tspan></text></svg>
